<svg width="23" height="23" viewBox="0 0 23 23" fill="none" xmlns="http://www.w3.org/2000/svg">
<g clip-path="url(#clip0_1_718)">
<path d="M9.71388 1.25329C10.39 -0.313598 12.61 -0.313598 13.2861 1.25329C13.7508 2.33054 15.055 2.75465 16.0638 2.15655C17.5309 1.28662 19.3269 2.59257 18.9535 4.25791C18.697 5.40284 19.503 6.51316 20.6702 6.62267C22.3682 6.78199 23.0541 8.89499 21.774 10.0227C20.8941 10.798 20.8941 12.1705 21.774 12.9458C23.0541 14.0735 22.3682 16.1866 20.6702 16.3458C19.503 16.4554 18.697 17.5657 18.9535 18.7106C19.3269 20.376 17.5309 21.6819 16.0638 20.812C15.055 20.214 13.7508 20.6379 13.2861 21.7153C12.61 23.2821 10.39 23.2821 9.71388 21.7153C9.24913 20.6379 7.94496 20.214 6.93627 20.812C5.46909 21.6819 3.6731 20.376 4.04639 18.7106C4.30302 17.5657 3.497 16.4554 2.3297 16.3458C0.631816 16.1866 -0.0541838 14.0735 1.22587 12.9458C2.1059 12.1705 2.1059 10.798 1.22587 10.0227C-0.0541838 8.89499 0.631816 6.78199 2.3297 6.62267C3.497 6.51316 4.30302 5.40284 4.04639 4.25791C3.6731 2.59257 5.46909 1.28662 6.93627 2.15655C7.94496 2.75465 9.24913 2.33054 9.71388 1.25329Z" fill="white"/>
<path d="M14.6414 8.71542C14.4271 8.72163 14.2238 8.81026 14.0743 8.96255C12.7693 10.2601 11.5776 11.5325 10.3243 12.802L8.85097 11.6302C8.76633 11.563 8.66919 11.5131 8.56511 11.4831C8.46103 11.4533 8.35204 11.444 8.24432 11.4559C8.13662 11.4676 8.03233 11.5005 7.93739 11.5523C7.84248 11.6042 7.75878 11.674 7.69107 11.758C7.62338 11.842 7.57301 11.9383 7.54286 12.0416C7.5127 12.1448 7.50333 12.253 7.5153 12.3598C7.52729 12.4668 7.56035 12.5702 7.61262 12.6643C7.66491 12.7584 7.73538 12.8414 7.82001 12.9086L9.88186 14.5449C10.0409 14.6706 10.2411 14.7337 10.444 14.7218C10.647 14.7101 10.8384 14.6243 10.9815 14.481C12.4646 13.0066 13.7935 11.5582 15.2428 10.1175C15.3612 10.0023 15.4417 9.85429 15.474 9.6929C15.5063 9.53162 15.4889 9.36428 15.4239 9.21292C15.3591 9.06155 15.2497 8.93316 15.11 8.84441C14.9704 8.75565 14.807 8.71071 14.6414 8.71542Z" fill="#272628"/>
</g>
<defs>
<clipPath id="clip0_1_718">
<rect width="23" height="23" fill="white"/>
</clipPath>
</defs>
</svg>
