<svg width="202" height="21" viewBox="0 0 202 21" fill="none" xmlns="http://www.w3.org/2000/svg">
<path d="M0.868 20L1.204 0.559999H5.812L7.948 11.864L10.252 0.559999H14.692L15.028 20H11.98L11.62 7.064L9.364 20H6.652L4.252 6.968L3.964 20H0.868ZM23.4064 20.288C21.9504 20.288 20.7984 20.032 19.9504 19.52C19.1024 19.008 18.4944 18.272 18.1264 17.312C17.7584 16.352 17.5744 15.208 17.5744 13.88V6.656C17.5744 5.312 17.7584 4.168 18.1264 3.224C18.4944 2.28 19.1024 1.56 19.9504 1.064C20.7984 0.551999 21.9504 0.295999 23.4064 0.295999C24.8784 0.295999 26.0384 0.551999 26.8864 1.064C27.7504 1.56 28.3664 2.28 28.7344 3.224C29.1024 4.168 29.2864 5.312 29.2864 6.656V13.88C29.2864 15.208 29.1024 16.352 28.7344 17.312C28.3664 18.272 27.7504 19.008 26.8864 19.52C26.0384 20.032 24.8784 20.288 23.4064 20.288ZM23.4064 17.24C23.8544 17.24 24.1824 17.128 24.3904 16.904C24.5984 16.68 24.7344 16.392 24.7984 16.04C24.8624 15.688 24.8944 15.328 24.8944 14.96V5.6C24.8944 5.216 24.8624 4.856 24.7984 4.52C24.7344 4.168 24.5984 3.88 24.3904 3.656C24.1824 3.432 23.8544 3.32 23.4064 3.32C22.9904 3.32 22.6784 3.432 22.4704 3.656C22.2624 3.88 22.1264 4.168 22.0624 4.52C21.9984 4.856 21.9664 5.216 21.9664 5.6V14.96C21.9664 15.328 21.9904 15.688 22.0384 16.04C22.1024 16.392 22.2304 16.68 22.4224 16.904C22.6304 17.128 22.9584 17.24 23.4064 17.24ZM34.3054 20L30.8014 0.559999H34.4734L36.5614 13.76L38.5054 0.559999H42.3934L38.8414 20H34.3054ZM44.3463 20V0.559999H53.0823V3.488H48.6423V8.312H52.0263V11.288H48.6423V17.096H53.1303V20H44.3463ZM61.2213 20V0.559999H66.1413C67.8373 0.559999 69.1573 0.775999 70.1013 1.208C71.0453 1.624 71.7093 2.288 72.0933 3.2C72.4773 4.096 72.6693 5.264 72.6693 6.704V13.76C72.6693 15.216 72.4773 16.408 72.0933 17.336C71.7093 18.248 71.0453 18.92 70.1013 19.352C69.1733 19.784 67.8693 20 66.1893 20H61.2213ZM65.5173 17.024H66.1893C66.8453 17.024 67.3173 16.928 67.6053 16.736C67.8933 16.544 68.0693 16.256 68.1333 15.872C68.2133 15.488 68.2533 15.008 68.2533 14.432V5.96C68.2533 5.384 68.2053 4.92 68.1093 4.568C68.0293 4.216 67.8453 3.96 67.5573 3.8C67.2693 3.64 66.8053 3.56 66.1653 3.56H65.5173V17.024ZM74.0665 20L77.7385 0.559999H82.6345L86.2585 20H82.2985L81.6505 15.896H78.7945L78.1225 20H74.0665ZM79.1785 13.328H81.2425L80.2105 5.744L79.1785 13.328ZM88.2213 20V0.559999H91.2453L95.2293 9.92V0.559999H98.7812V20H95.8773L91.8933 9.92V20H88.2213ZM107.242 20.288C105.77 20.288 104.602 20.024 103.738 19.496C102.89 18.952 102.29 18.2 101.938 17.24C101.586 16.264 101.41 15.12 101.41 13.808V6.8C101.41 5.456 101.586 4.304 101.938 3.344C102.29 2.368 102.89 1.616 103.738 1.088C104.602 0.559999 105.77 0.295999 107.242 0.295999C108.682 0.295999 109.802 0.535999 110.602 1.016C111.418 1.48 111.994 2.136 112.33 2.984C112.666 3.832 112.834 4.808 112.834 5.912V7.592H108.634V5.648C108.634 5.264 108.61 4.896 108.562 4.544C108.53 4.192 108.418 3.904 108.226 3.68C108.034 3.44 107.706 3.32 107.242 3.32C106.794 3.32 106.458 3.44 106.234 3.68C106.026 3.92 105.89 4.224 105.826 4.592C105.778 4.944 105.754 5.32 105.754 5.72V14.864C105.754 15.296 105.786 15.696 105.85 16.064C105.93 16.416 106.074 16.704 106.282 16.928C106.506 17.136 106.826 17.24 107.242 17.24C107.69 17.24 108.01 17.128 108.202 16.904C108.394 16.664 108.514 16.36 108.562 15.992C108.61 15.624 108.634 15.248 108.634 14.864V12.824H112.834V14.504C112.834 15.608 112.666 16.6 112.33 17.48C112.01 18.344 111.442 19.032 110.626 19.544C109.826 20.04 108.698 20.288 107.242 20.288ZM115.198 20V0.559999H123.934V3.488H119.494V8.312H122.878V11.288H119.494V17.096H123.982V20H115.198ZM137.233 20.288C136.017 20.288 135.001 20.072 134.185 19.64C133.369 19.208 132.753 18.544 132.337 17.648C131.921 16.736 131.689 15.56 131.641 14.12L135.313 13.568C135.329 14.4 135.401 15.072 135.529 15.584C135.673 16.096 135.865 16.464 136.105 16.688C136.361 16.912 136.665 17.024 137.017 17.024C137.465 17.024 137.753 16.872 137.881 16.568C138.025 16.264 138.097 15.944 138.097 15.608C138.097 14.808 137.905 14.136 137.521 13.592C137.137 13.032 136.617 12.472 135.961 11.912L134.281 10.448C133.545 9.824 132.921 9.12 132.409 8.336C131.913 7.536 131.665 6.552 131.665 5.384C131.665 3.736 132.153 2.48 133.129 1.616C134.105 0.735999 135.433 0.295999 137.113 0.295999C138.153 0.295999 138.985 0.471999 139.609 0.823999C140.249 1.176 140.729 1.64 141.049 2.216C141.385 2.776 141.609 3.376 141.721 4.016C141.849 4.64 141.921 5.24 141.937 5.816L138.241 6.272C138.225 5.696 138.185 5.2 138.121 4.784C138.073 4.352 137.961 4.024 137.785 3.8C137.609 3.56 137.337 3.44 136.969 3.44C136.569 3.44 136.273 3.608 136.081 3.944C135.905 4.28 135.817 4.616 135.817 4.952C135.817 5.672 135.985 6.264 136.321 6.728C136.673 7.176 137.129 7.648 137.689 8.144L139.297 9.56C140.145 10.28 140.857 11.096 141.433 12.008C142.025 12.92 142.321 14.048 142.321 15.392C142.321 16.304 142.113 17.136 141.697 17.888C141.281 18.624 140.689 19.208 139.921 19.64C139.169 20.072 138.273 20.288 137.233 20.288ZM146.153 20V3.752H143.225V0.559999H153.377V3.752H150.473V20H146.153ZM160.704 20.288C159.216 20.288 158.048 20.048 157.2 19.568C156.368 19.072 155.784 18.36 155.448 17.432C155.112 16.488 154.944 15.336 154.944 13.976V0.559999H159.192V14.624C159.192 15.024 159.224 15.424 159.288 15.824C159.352 16.224 159.488 16.552 159.696 16.808C159.92 17.064 160.256 17.192 160.704 17.192C161.168 17.192 161.504 17.064 161.712 16.808C161.92 16.552 162.048 16.224 162.096 15.824C162.16 15.424 162.192 15.024 162.192 14.624V0.559999H166.464V13.976C166.464 15.336 166.288 16.488 165.936 17.432C165.6 18.36 165.016 19.072 164.184 19.568C163.352 20.048 162.192 20.288 160.704 20.288ZM169.198 20V0.559999H174.118C175.814 0.559999 177.134 0.775999 178.078 1.208C179.022 1.624 179.686 2.288 180.07 3.2C180.454 4.096 180.646 5.264 180.646 6.704V13.76C180.646 15.216 180.454 16.408 180.07 17.336C179.686 18.248 179.022 18.92 178.078 19.352C177.15 19.784 175.846 20 174.166 20H169.198ZM173.494 17.024H174.166C174.822 17.024 175.294 16.928 175.582 16.736C175.87 16.544 176.046 16.256 176.11 15.872C176.19 15.488 176.23 15.008 176.23 14.432V5.96C176.23 5.384 176.182 4.92 176.086 4.568C176.006 4.216 175.822 3.96 175.534 3.8C175.246 3.64 174.782 3.56 174.142 3.56H173.494V17.024ZM183.284 20V0.559999H187.58V20H183.284ZM196.047 20.288C194.591 20.288 193.439 20.032 192.591 19.52C191.743 19.008 191.135 18.272 190.767 17.312C190.399 16.352 190.215 15.208 190.215 13.88V6.656C190.215 5.312 190.399 4.168 190.767 3.224C191.135 2.28 191.743 1.56 192.591 1.064C193.439 0.551999 194.591 0.295999 196.047 0.295999C197.519 0.295999 198.679 0.551999 199.527 1.064C200.391 1.56 201.007 2.28 201.375 3.224C201.743 4.168 201.927 5.312 201.927 6.656V13.88C201.927 15.208 201.743 16.352 201.375 17.312C201.007 18.272 200.391 19.008 199.527 19.52C198.679 20.032 197.519 20.288 196.047 20.288ZM196.047 17.24C196.495 17.24 196.823 17.128 197.031 16.904C197.239 16.68 197.375 16.392 197.439 16.04C197.503 15.688 197.535 15.328 197.535 14.96V5.6C197.535 5.216 197.503 4.856 197.439 4.52C197.375 4.168 197.239 3.88 197.031 3.656C196.823 3.432 196.495 3.32 196.047 3.32C195.631 3.32 195.319 3.432 195.111 3.656C194.903 3.88 194.767 4.168 194.703 4.52C194.639 4.856 194.607 5.216 194.607 5.6V14.96C194.607 15.328 194.631 15.688 194.679 16.04C194.743 16.392 194.871 16.68 195.063 16.904C195.271 17.128 195.599 17.24 196.047 17.24Z" fill="white"/>
</svg>
