<svg width="151" height="16" viewBox="0 0 151 16" fill="none" xmlns="http://www.w3.org/2000/svg">
<path d="M0.0260001 15L0.278 0.419999H3.734L5.336 8.898L7.064 0.419999H10.394L10.646 15H8.36L8.09 5.298L6.398 15H4.364L2.564 5.226L2.348 15H0.0260001ZM16.9298 15.216C15.8378 15.216 14.9738 15.024 14.3378 14.64C13.7018 14.256 13.2458 13.704 12.9698 12.984C12.6938 12.264 12.5558 11.406 12.5558 10.41V4.992C12.5558 3.984 12.6938 3.126 12.9698 2.418C13.2458 1.71 13.7018 1.17 14.3378 0.797999C14.9738 0.413999 15.8378 0.221999 16.9298 0.221999C18.0338 0.221999 18.9038 0.413999 19.5398 0.797999C20.1878 1.17 20.6498 1.71 20.9258 2.418C21.2018 3.126 21.3398 3.984 21.3398 4.992V10.41C21.3398 11.406 21.2018 12.264 20.9258 12.984C20.6498 13.704 20.1878 14.256 19.5398 14.64C18.9038 15.024 18.0338 15.216 16.9298 15.216ZM16.9298 12.93C17.2658 12.93 17.5118 12.846 17.6678 12.678C17.8238 12.51 17.9258 12.294 17.9738 12.03C18.0218 11.766 18.0458 11.496 18.0458 11.22V4.2C18.0458 3.912 18.0218 3.642 17.9738 3.39C17.9258 3.126 17.8238 2.91 17.6678 2.742C17.5118 2.574 17.2658 2.49 16.9298 2.49C16.6178 2.49 16.3838 2.574 16.2278 2.742C16.0718 2.91 15.9698 3.126 15.9218 3.39C15.8738 3.642 15.8498 3.912 15.8498 4.2V11.22C15.8498 11.496 15.8678 11.766 15.9038 12.03C15.9518 12.294 16.0478 12.51 16.1918 12.678C16.3478 12.846 16.5938 12.93 16.9298 12.93ZM25.1041 15L22.4761 0.419999H25.2301L26.7961 10.32L28.2541 0.419999H31.1701L28.5061 15H25.1041ZM32.6347 15V0.419999H39.1867V2.616H35.8567V6.234H38.3947V8.466H35.8567V12.822H39.2227V15H32.6347ZM45.2909 15V0.419999H48.9809C50.2529 0.419999 51.2429 0.581999 51.9509 0.905999C52.6589 1.218 53.1569 1.716 53.4449 2.4C53.7329 3.072 53.8769 3.948 53.8769 5.028V10.32C53.8769 11.412 53.7329 12.306 53.4449 13.002C53.1569 13.686 52.6589 14.19 51.9509 14.514C51.2549 14.838 50.2769 15 49.0169 15H45.2909ZM48.5129 12.768H49.0169C49.5089 12.768 49.8629 12.696 50.0789 12.552C50.2949 12.408 50.4269 12.192 50.4749 11.904C50.5349 11.616 50.5649 11.256 50.5649 10.824V4.47C50.5649 4.038 50.5289 3.69 50.4569 3.426C50.3969 3.162 50.2589 2.97 50.0429 2.85C49.8269 2.73 49.4789 2.67 48.9989 2.67H48.5129V12.768ZM54.9249 15L57.6789 0.419999H61.3509L64.0689 15H61.0989L60.6129 11.922H58.4709L57.9669 15H54.9249ZM58.7589 9.996H60.3069L59.5329 4.308L58.7589 9.996ZM65.5409 15V0.419999H67.8089L70.7969 7.44V0.419999H73.4609V15H71.2829L68.2949 7.44V15H65.5409ZM79.8068 15.216C78.7028 15.216 77.8268 15.018 77.1788 14.622C76.5428 14.214 76.0928 13.65 75.8288 12.93C75.5648 12.198 75.4328 11.34 75.4328 10.356V5.1C75.4328 4.092 75.5648 3.228 75.8288 2.508C76.0928 1.776 76.5428 1.212 77.1788 0.815999C77.8268 0.419999 78.7028 0.221999 79.8068 0.221999C80.8868 0.221999 81.7268 0.401999 82.3268 0.762C82.9388 1.11 83.3708 1.602 83.6228 2.238C83.8748 2.874 84.0008 3.606 84.0008 4.434V5.694H80.8508V4.236C80.8508 3.948 80.8328 3.672 80.7968 3.408C80.7728 3.144 80.6888 2.928 80.5448 2.76C80.4008 2.58 80.1548 2.49 79.8068 2.49C79.4708 2.49 79.2188 2.58 79.0508 2.76C78.8948 2.94 78.7928 3.168 78.7448 3.444C78.7088 3.708 78.6908 3.99 78.6908 4.29V11.148C78.6908 11.472 78.7148 11.772 78.7628 12.048C78.8228 12.312 78.9308 12.528 79.0868 12.696C79.2548 12.852 79.4948 12.93 79.8068 12.93C80.1428 12.93 80.3828 12.846 80.5268 12.678C80.6708 12.498 80.7608 12.27 80.7968 11.994C80.8328 11.718 80.8508 11.436 80.8508 11.148V9.618H84.0008V10.878C84.0008 11.706 83.8748 12.45 83.6228 13.11C83.3828 13.758 82.9568 14.274 82.3448 14.658C81.7448 15.03 80.8988 15.216 79.8068 15.216ZM85.7734 15V0.419999H92.3254V2.616H88.9954V6.234H91.5334V8.466H88.9954V12.822H92.3614V15H85.7734ZM102.3 15.216C101.388 15.216 100.626 15.054 100.014 14.73C99.4016 14.406 98.9396 13.908 98.6276 13.236C98.3156 12.552 98.1416 11.67 98.1056 10.59L100.86 10.176C100.872 10.8 100.926 11.304 101.022 11.688C101.13 12.072 101.274 12.348 101.454 12.516C101.646 12.684 101.874 12.768 102.138 12.768C102.474 12.768 102.69 12.654 102.786 12.426C102.894 12.198 102.948 11.958 102.948 11.706C102.948 11.106 102.804 10.602 102.516 10.194C102.228 9.774 101.838 9.354 101.346 8.934L100.086 7.836C99.5336 7.368 99.0656 6.84 98.6816 6.252C98.3096 5.652 98.1236 4.914 98.1236 4.038C98.1236 2.802 98.4896 1.86 99.2216 1.212C99.9536 0.551999 100.95 0.221999 102.21 0.221999C102.99 0.221999 103.614 0.353999 104.082 0.618C104.562 0.882 104.922 1.23 105.162 1.662C105.414 2.082 105.582 2.532 105.666 3.012C105.762 3.48 105.816 3.93 105.828 4.362L103.056 4.704C103.044 4.272 103.014 3.9 102.966 3.588C102.93 3.264 102.846 3.018 102.714 2.85C102.582 2.67 102.378 2.58 102.102 2.58C101.802 2.58 101.58 2.706 101.436 2.958C101.304 3.21 101.238 3.462 101.238 3.714C101.238 4.254 101.364 4.698 101.616 5.046C101.88 5.382 102.222 5.736 102.642 6.108L103.848 7.17C104.484 7.71 105.018 8.322 105.45 9.006C105.894 9.69 106.116 10.536 106.116 11.544C106.116 12.228 105.96 12.852 105.648 13.416C105.336 13.968 104.892 14.406 104.316 14.73C103.752 15.054 103.08 15.216 102.3 15.216ZM108.99 15V2.814H106.794V0.419999H114.408V2.814H112.23V15H108.99ZM119.903 15.216C118.787 15.216 117.911 15.036 117.275 14.676C116.651 14.304 116.213 13.77 115.961 13.074C115.709 12.366 115.583 11.502 115.583 10.482V0.419999H118.769V10.968C118.769 11.268 118.793 11.568 118.841 11.868C118.889 12.168 118.991 12.414 119.147 12.606C119.315 12.798 119.567 12.894 119.903 12.894C120.251 12.894 120.503 12.798 120.659 12.606C120.815 12.414 120.911 12.168 120.947 11.868C120.995 11.568 121.019 11.268 121.019 10.968V0.419999H124.223V10.482C124.223 11.502 124.091 12.366 123.827 13.074C123.575 13.77 123.137 14.304 122.513 14.676C121.889 15.036 121.019 15.216 119.903 15.216ZM126.273 15V0.419999H129.963C131.235 0.419999 132.225 0.581999 132.933 0.905999C133.641 1.218 134.139 1.716 134.427 2.4C134.715 3.072 134.859 3.948 134.859 5.028V10.32C134.859 11.412 134.715 12.306 134.427 13.002C134.139 13.686 133.641 14.19 132.933 14.514C132.237 14.838 131.259 15 129.999 15H126.273ZM129.495 12.768H129.999C130.491 12.768 130.845 12.696 131.061 12.552C131.277 12.408 131.409 12.192 131.457 11.904C131.517 11.616 131.547 11.256 131.547 10.824V4.47C131.547 4.038 131.511 3.69 131.439 3.426C131.379 3.162 131.241 2.97 131.025 2.85C130.809 2.73 130.461 2.67 129.981 2.67H129.495V12.768ZM136.838 15V0.419999H140.06V15H136.838ZM146.41 15.216C145.318 15.216 144.454 15.024 143.818 14.64C143.182 14.256 142.726 13.704 142.45 12.984C142.174 12.264 142.036 11.406 142.036 10.41V4.992C142.036 3.984 142.174 3.126 142.45 2.418C142.726 1.71 143.182 1.17 143.818 0.797999C144.454 0.413999 145.318 0.221999 146.41 0.221999C147.514 0.221999 148.384 0.413999 149.02 0.797999C149.668 1.17 150.13 1.71 150.406 2.418C150.682 3.126 150.82 3.984 150.82 4.992V10.41C150.82 11.406 150.682 12.264 150.406 12.984C150.13 13.704 149.668 14.256 149.02 14.64C148.384 15.024 147.514 15.216 146.41 15.216ZM146.41 12.93C146.746 12.93 146.992 12.846 147.148 12.678C147.304 12.51 147.406 12.294 147.454 12.03C147.502 11.766 147.526 11.496 147.526 11.22V4.2C147.526 3.912 147.502 3.642 147.454 3.39C147.406 3.126 147.304 2.91 147.148 2.742C146.992 2.574 146.746 2.49 146.41 2.49C146.098 2.49 145.864 2.574 145.708 2.742C145.552 2.91 145.45 3.126 145.402 3.39C145.354 3.642 145.33 3.912 145.33 4.2V11.22C145.33 11.496 145.348 11.766 145.384 12.03C145.432 12.294 145.528 12.51 145.672 12.678C145.828 12.846 146.074 12.93 146.41 12.93Z" fill="#B481FF"/>
</svg>
