<svg width="19" height="22" viewBox="0 0 19 22" fill="none" xmlns="http://www.w3.org/2000/svg">
<path fill-rule="evenodd" clip-rule="evenodd" d="M9.5 2.11111C7.7511 2.11111 6.33333 3.52888 6.33333 5.27778C6.33333 7.02668 7.7511 8.44445 9.5 8.44445C11.2489 8.44445 12.6667 7.02668 12.6667 5.27778C12.6667 3.52888 11.2489 2.11111 9.5 2.11111ZM4.22222 5.27778C4.22222 2.36294 6.58516 0 9.5 0C12.4148 0 14.7778 2.36294 14.7778 5.27778C14.7778 8.19261 12.4148 10.5556 9.5 10.5556C6.58516 10.5556 4.22222 8.19261 4.22222 5.27778ZM1.54583 14.2125C2.5356 13.2227 3.87802 12.6667 5.27778 12.6667H13.7222C15.122 12.6667 16.4644 13.2227 17.4542 14.2125C18.4439 15.2023 19 16.5447 19 17.9444V20.0556C19 20.6385 18.5274 21.1111 17.9444 21.1111C17.3615 21.1111 16.8889 20.6385 16.8889 20.0556V17.9444C16.8889 17.1046 16.5553 16.2991 15.9614 15.7053C15.3675 15.1114 14.5621 14.7778 13.7222 14.7778H5.27778C4.43793 14.7778 3.63247 15.1114 3.03861 15.7053C2.44474 16.2991 2.11111 17.1046 2.11111 17.9444V20.0556C2.11111 20.6385 1.63852 21.1111 1.05556 21.1111C0.472588 21.1111 0 20.6385 0 20.0556V17.9444C0 16.5447 0.55605 15.2023 1.54583 14.2125Z" fill="#B480FF"/>
</svg>
